<?xml version="1.0" encoding="UTF-8"?> <svg xmlns="http://www.w3.org/2000/svg" width="1228" height="300" viewBox="0 0 1228 300" fill="none"><path fill-rule="evenodd" clip-rule="evenodd" d="M156.544 55.5283C147.153 55.3433 138.542 62.789 137.257 72.1649C135.972 81.5408 142.577 89.2966 151.963 89.4816C161.349 89.6666 169.965 82.2209 171.25 72.845C172.535 63.4691 165.929 55.7233 156.544 55.5283ZM109.329 64.0292H79.1308C78.7942 64.0295 78.4687 64.1493 78.2123 64.3672C77.9559 64.5852 77.7852 64.8872 77.7307 65.2193L55.9935 198.542C55.961 198.745 55.9728 198.952 56.0282 199.15C56.0835 199.348 56.1811 199.531 56.3142 199.688C56.4473 199.844 56.6128 199.97 56.7991 200.056C56.9855 200.142 57.1883 200.187 57.3937 200.188H87.6016C87.9382 200.187 88.2637 200.067 88.5201 199.849C88.7766 199.631 88.9473 199.329 89.0018 198.997L110.729 65.6743C110.762 65.4714 110.751 65.2637 110.696 65.0656C110.641 64.8675 110.544 64.6837 110.41 64.5271C110.277 64.3705 110.111 64.2449 109.924 64.1589C109.738 64.0729 109.534 64.0286 109.329 64.0292ZM164.649 99.5577H134.451C134.115 99.558 133.789 99.6778 133.533 99.8957C133.276 100.114 133.106 100.416 133.051 100.748L117.12 198.542C117.087 198.745 117.099 198.952 117.154 199.15C117.21 199.348 117.307 199.531 117.44 199.688C117.573 199.844 117.739 199.97 117.925 200.056C118.112 200.142 118.314 200.187 118.52 200.188H148.713C149.049 200.187 149.375 200.067 149.631 199.849C149.888 199.631 150.058 199.329 150.113 198.997L166.049 101.203C166.083 101 166.072 100.792 166.017 100.594C165.962 100.396 165.864 100.212 165.731 100.056C165.598 99.899 165.432 99.7734 165.245 99.6874C165.058 99.6014 164.855 99.5571 164.649 99.5577ZM263.514 161.609H353.488C353.693 161.609 353.895 161.654 354.081 161.74C354.267 161.826 354.432 161.951 354.565 162.107C354.698 162.263 354.796 162.445 354.852 162.642C354.907 162.84 354.92 163.046 354.888 163.249L349.063 199.002C349.008 199.334 348.837 199.635 348.581 199.852C348.324 200.07 347.999 200.188 347.662 200.187H317.47C317.264 200.188 317.061 200.144 316.874 200.058C316.687 199.972 316.521 199.846 316.388 199.689C316.255 199.533 316.157 199.349 316.102 199.151C316.047 198.953 316.036 198.745 316.069 198.542L320.535 171.18C320.567 170.977 320.556 170.769 320.5 170.572C320.445 170.374 320.347 170.191 320.214 170.034C320.081 169.878 319.916 169.752 319.729 169.666C319.543 169.58 319.34 169.535 319.135 169.534H296.472C296.136 169.535 295.812 169.655 295.556 169.873C295.3 170.091 295.131 170.393 295.077 170.725L291.752 191.137C290.234 200.736 286.382 209.816 280.536 217.579C254.428 251.877 207.449 244.307 198.558 242.507C198.368 242.469 198.188 242.392 198.029 242.282C197.87 242.172 197.735 242.03 197.633 241.865C197.532 241.7 197.465 241.517 197.437 241.325C197.41 241.133 197.422 240.938 197.473 240.751L201.523 216.979C201.585 216.623 201.78 216.303 202.069 216.086C202.358 215.868 202.719 215.769 203.078 215.809C245.707 220.379 257.129 197.772 258.829 190.271L259.229 187.831C259.231 187.816 259.231 187.801 259.229 187.786C259.23 187.771 259.23 187.756 259.229 187.741L259.419 186.586C231.476 208.088 209.014 203.473 199.188 199.587C198.9 199.474 198.657 199.269 198.497 199.003C198.337 198.738 198.269 198.428 198.303 198.12C198.338 197.812 198.472 197.524 198.686 197.301C198.9 197.077 199.182 196.93 199.488 196.882C200.8 196.688 202.075 196.295 203.268 195.717C203.513 195.599 203.718 195.413 203.86 195.181C204.001 194.949 204.073 194.682 204.067 194.41C204.061 194.139 203.976 193.875 203.824 193.65C203.672 193.425 203.458 193.248 203.208 193.142C198.314 191.129 193.945 188.022 190.438 184.059C186.931 180.096 184.378 175.382 182.976 170.279C182.898 169.976 182.72 169.707 182.472 169.515C182.224 169.323 181.92 169.219 181.606 169.219H173.86C173.655 169.219 173.453 169.174 173.266 169.088C173.08 169.002 172.915 168.876 172.782 168.72C172.65 168.563 172.552 168.38 172.498 168.182C172.443 167.984 172.432 167.777 172.465 167.574L173.195 163.074C173.25 162.742 173.421 162.44 173.677 162.222C173.933 162.004 174.259 161.884 174.595 161.884H217.6C217.834 161.885 218.064 161.944 218.27 162.056C218.476 162.168 218.651 162.328 218.78 162.524C223.72 169.824 230.281 171.62 233.926 172.025C234.2 172.061 234.457 172.177 234.666 172.358C234.874 172.539 235.025 172.777 235.1 173.043C235.175 173.309 235.171 173.591 235.087 173.854C235.004 174.117 234.846 174.351 234.631 174.525C233.78 175.181 232.859 175.743 231.886 176.2C231.633 176.322 231.422 176.518 231.28 176.76C231.139 177.003 231.072 177.283 231.09 177.563C231.108 177.844 231.209 178.113 231.38 178.336C231.551 178.559 231.785 178.726 232.051 178.815C251.083 185.461 263.184 162.244 263.514 161.609ZM187.896 140.277H218.794C219.082 140.276 219.363 140.188 219.599 140.025C219.836 139.862 220.017 139.63 220.12 139.362C221.525 135.681 227.805 122.095 244.157 122.095C244.157 122.095 260.118 122.51 266.629 139.312C266.73 139.582 266.911 139.815 267.148 139.98C267.384 140.145 267.666 140.235 267.954 140.237H298.832C299.169 140.236 299.494 140.117 299.751 139.899C300.007 139.681 300.178 139.379 300.232 139.047L306.363 101.433C306.396 101.23 306.385 101.022 306.33 100.824C306.275 100.626 306.178 100.442 306.044 100.286C305.911 100.129 305.745 100.003 305.558 99.9174C305.372 99.8314 305.168 99.7871 304.963 99.7877H274.77C274.433 99.788 274.108 99.9078 273.851 100.126C273.595 100.344 273.424 100.646 273.37 100.978L272.37 107.168C272.33 107.419 272.224 107.654 272.063 107.849C271.902 108.044 271.691 108.192 271.452 108.277C271.214 108.363 270.957 108.382 270.708 108.334C270.46 108.286 270.229 108.172 270.039 108.003C265.744 104.238 256.678 98.1925 242.767 98.1925C222.96 98.1925 195.997 107.393 186.546 138.436C186.482 138.648 186.467 138.872 186.505 139.091C186.542 139.309 186.629 139.516 186.761 139.695C186.892 139.873 187.062 140.019 187.26 140.12C187.457 140.221 187.675 140.275 187.896 140.277ZM500.542 170.17C499.592 177.375 502.323 178.345 522.15 178.17C522.357 178.168 522.562 178.21 522.75 178.295C522.939 178.38 523.107 178.506 523.243 178.662C523.378 178.819 523.477 179.004 523.534 179.203C523.59 179.402 523.603 179.611 523.57 179.815L520.294 198.922C520.244 199.222 520.099 199.498 519.88 199.708C519.661 199.919 519.381 200.054 519.079 200.092C515.599 200.532 503.918 201.763 492.417 200.187C486.471 199.372 480.57 197.812 475.87 195.002C468.514 190.597 466.514 182.871 466.514 175.96C466.514 174.348 466.606 172.737 466.789 171.135C466.813 170.936 466.795 170.734 466.735 170.543C466.676 170.352 466.576 170.176 466.443 170.026C466.31 169.876 466.147 169.756 465.965 169.674C465.782 169.592 465.584 169.549 465.384 169.549H430.151C429.814 169.55 429.488 169.67 429.232 169.888C428.976 170.105 428.805 170.407 428.75 170.74L424.15 198.997C424.095 199.329 423.925 199.631 423.668 199.849C423.412 200.067 423.086 200.187 422.75 200.187H392.557C392.351 200.187 392.149 200.142 391.962 200.056C391.776 199.97 391.611 199.844 391.477 199.688C391.344 199.531 391.247 199.348 391.191 199.15C391.136 198.952 391.124 198.745 391.157 198.542L396.977 162.819C397.032 162.487 397.202 162.185 397.459 161.967C397.715 161.749 398.041 161.629 398.377 161.629H500.257C500.463 161.629 500.665 161.674 500.851 161.76C501.038 161.846 501.203 161.972 501.336 162.129C501.468 162.285 501.565 162.469 501.62 162.666C501.675 162.864 501.686 163.071 501.653 163.274L500.652 169.274L500.542 169.979V170.17ZM400.677 140.077C400.675 140.107 400.675 140.137 400.677 140.167V140.237H432.53C432.87 140.238 433.198 140.117 433.455 139.895C433.712 139.674 433.881 139.367 433.93 139.032C438.021 110.609 419.214 105.028 406.518 104.383C403.256 104.223 399.986 104.351 396.747 104.768C396.628 104.785 396.508 104.771 396.396 104.728C396.284 104.685 396.185 104.615 396.108 104.524C396.03 104.432 395.977 104.323 395.954 104.206C395.93 104.089 395.936 103.967 395.972 103.853C396.733 101.529 397.783 99.3098 399.097 97.2474C399.169 97.1329 399.207 97.0007 399.208 96.8656C399.209 96.7304 399.173 96.5977 399.103 96.4821C399.033 96.3665 398.932 96.2726 398.812 96.2109C398.692 96.1491 398.557 96.1219 398.422 96.1323C383.121 97.3324 371.919 104.363 366.284 108.799C366.06 108.977 365.788 109.084 365.502 109.105C365.217 109.126 364.932 109.059 364.685 108.915C364.438 108.77 364.241 108.554 364.119 108.295C363.997 108.036 363.957 107.746 364.004 107.463L370.809 65.6743C370.843 65.4714 370.832 65.2637 370.776 65.0656C370.721 64.8675 370.624 64.6837 370.491 64.5271C370.357 64.3705 370.192 64.2449 370.005 64.1589C369.818 64.0729 369.615 64.0286 369.409 64.0292H339.186C338.85 64.0295 338.524 64.1493 338.268 64.3672C338.011 64.5852 337.841 64.8872 337.786 65.2193L325.835 138.591C325.802 138.794 325.814 139.002 325.87 139.199C325.925 139.397 326.023 139.581 326.156 139.737C326.289 139.893 326.454 140.019 326.641 140.105C326.827 140.191 327.03 140.236 327.235 140.237H357.463L358.843 139.117C361.258 127.665 371.024 122.88 375.29 121.305C375.436 121.25 375.594 121.239 375.746 121.275C375.898 121.31 376.036 121.389 376.142 121.502C376.249 121.615 376.32 121.758 376.346 121.911C376.373 122.065 376.353 122.223 376.29 122.365C375.475 124.305 375.345 126.69 375.35 128.12C375.35 128.245 375.384 128.367 375.448 128.474C375.512 128.581 375.603 128.668 375.713 128.727C375.823 128.786 375.946 128.814 376.071 128.809C376.195 128.803 376.316 128.764 376.42 128.695C403.633 110.679 400.952 137.731 400.677 140.077ZM473.774 121.185H457.828C457.622 121.185 457.419 121.14 457.232 121.053C457.045 120.967 456.879 120.84 456.746 120.683C456.613 120.526 456.515 120.342 456.46 120.144C456.405 119.946 456.394 119.738 456.428 119.535L459.463 100.958C459.518 100.627 459.69 100.326 459.946 100.109C460.202 99.8919 460.527 99.7728 460.863 99.7727H477.74C478.073 99.774 478.396 99.6572 478.651 99.443C478.907 99.2288 479.078 98.931 479.135 98.6026L483.035 74.6752L484.375 66.3544C484.428 66.0223 484.597 65.7198 484.853 65.5016C485.109 65.2834 485.434 65.1637 485.77 65.1643H515.978C516.184 65.1637 516.387 65.208 516.574 65.294C516.761 65.38 516.927 65.5056 517.06 65.6622C517.193 65.8188 517.291 66.0026 517.346 66.2007C517.401 66.3988 517.412 66.6066 517.379 66.8094L516.038 75.0302V75.1303L512.258 98.1275C512.225 98.3303 512.237 98.5377 512.293 98.7354C512.348 98.9332 512.446 99.1166 512.579 99.2729C512.712 99.4293 512.877 99.555 513.064 99.6413C513.25 99.7275 513.453 99.7724 513.658 99.7727H537.556C537.761 99.773 537.964 99.8178 538.15 99.9041C538.336 99.9903 538.502 100.116 538.635 100.272C538.768 100.429 538.866 100.612 538.921 100.81C538.976 101.008 538.988 101.215 538.956 101.418L535.92 119.985C535.866 120.316 535.695 120.618 535.438 120.835C535.182 121.052 534.856 121.171 534.52 121.17H509.708C509.372 121.168 509.047 121.287 508.791 121.504C508.535 121.721 508.365 122.023 508.313 122.355L506.968 130.596C506.934 130.799 506.945 131.006 507 131.204C507.055 131.403 507.153 131.586 507.286 131.743C507.419 131.899 507.585 132.025 507.772 132.111C507.959 132.197 508.162 132.241 508.368 132.241H550.237C550.582 132.241 550.915 132.115 551.174 131.887C551.433 131.658 551.599 131.343 551.642 131.001C552.627 123.41 559.218 97.9975 603.382 97.9975C648.566 97.9975 655.287 124.6 656.287 131.501C656.316 131.702 656.301 131.907 656.243 132.101C656.186 132.296 656.087 132.476 655.954 132.63C655.821 132.783 655.656 132.906 655.471 132.99C655.286 133.073 655.085 133.117 654.882 133.116H627.379C627.107 133.116 626.841 133.037 626.613 132.89C626.384 132.743 626.202 132.533 626.089 132.286C624.644 129.121 618.518 117.989 603.947 117.989C586.965 117.989 581.455 126.75 583.505 133.466C583.505 133.466 584.405 136.706 593.506 136.706C602.607 136.706 608.888 137.916 612.478 140.207H474.024C473.819 140.207 473.615 140.163 473.429 140.077C473.242 139.991 473.076 139.865 472.943 139.709C472.81 139.552 472.712 139.368 472.657 139.17C472.602 138.972 472.591 138.764 472.624 138.561L475.189 122.81V122.715C475.205 122.52 475.179 122.324 475.115 122.139C475.051 121.954 474.949 121.784 474.816 121.641C474.683 121.497 474.522 121.382 474.343 121.304C474.164 121.225 473.97 121.185 473.774 121.185ZM1170.89 99.2625C1166.01 98.2587 1160.99 98.13 1156.07 98.8825C1154.55 99.1088 1153.05 99.4109 1151.57 99.7876C1140.7 102.513 1132.17 108.623 1127.92 112.149C1127.7 112.335 1127.43 112.449 1127.14 112.475C1126.85 112.5 1126.56 112.437 1126.31 112.293C1126.06 112.149 1125.86 111.932 1125.73 111.67C1125.61 111.408 1125.57 111.114 1125.62 110.829L1127.15 101.433C1127.19 101.23 1127.18 101.022 1127.12 100.824C1127.07 100.626 1126.97 100.442 1126.83 100.286C1126.7 100.129 1126.54 100.003 1126.35 99.9173C1126.16 99.8313 1125.96 99.787 1125.75 99.7876H1095.54C1095.21 99.7879 1094.88 99.9077 1094.63 100.126C1094.37 100.344 1094.2 100.646 1094.14 100.978L1078.25 198.542C1078.22 198.745 1078.23 198.952 1078.29 199.15C1078.34 199.348 1078.44 199.531 1078.57 199.688C1078.71 199.844 1078.87 199.97 1079.06 200.056C1079.25 200.142 1079.45 200.187 1079.65 200.187H1109.84C1110.18 200.187 1110.5 200.067 1110.76 199.849C1111.02 199.631 1111.19 199.329 1111.24 198.997L1119.74 146.822C1124.64 116.754 1159.47 121.1 1166.9 122.385C1167.08 122.416 1167.27 122.411 1167.45 122.37C1167.63 122.329 1167.8 122.252 1167.96 122.144C1168.11 122.036 1168.24 121.9 1168.34 121.742C1168.43 121.584 1168.5 121.408 1168.53 121.225L1172.01 100.883C1172.07 100.52 1171.98 100.15 1171.77 99.848C1171.56 99.5462 1171.25 99.3365 1170.89 99.2625ZM954.861 132.111C968.618 102.043 996.085 96.8824 1016.09 98.4925C1066.59 102.533 1062.27 148.817 1061.1 156.888C1061.05 157.223 1060.89 157.53 1060.63 157.754C1060.38 157.977 1060.05 158.103 1059.72 158.108L979.674 159.423C979.455 159.427 979.24 159.482 979.046 159.583C978.851 159.684 978.683 159.828 978.554 160.005C978.424 160.182 978.338 160.386 978.3 160.602C978.263 160.817 978.276 161.039 978.339 161.249C981.944 173.79 994.265 180.876 1005.73 180.876C1020.8 180.876 1032.54 171.255 1035.58 168.509C1035.81 168.304 1036.1 168.177 1036.4 168.148C1036.71 168.119 1037.01 168.19 1037.27 168.349L1053.08 177.995C1053.26 178.108 1053.42 178.262 1053.53 178.444C1053.65 178.626 1053.72 178.832 1053.74 179.047C1053.77 179.261 1053.74 179.479 1053.67 179.682C1053.6 179.885 1053.48 180.07 1053.33 180.221C1026.44 206.618 1003.53 203.368 983.819 199.617C963.797 195.807 938.48 167.919 954.861 132.111ZM984.454 140.077H1030.69H1030.7C1030.91 140.076 1031.12 140.027 1031.31 139.935C1031.5 139.843 1031.67 139.709 1031.8 139.544C1031.93 139.378 1032.03 139.185 1032.08 138.979C1032.12 138.773 1032.12 138.558 1032.08 138.351C1031.04 133.556 1026.55 120.38 1008.52 120.38C990.655 120.38 984.714 133.316 983.104 138.221C983.035 138.434 983.016 138.661 983.051 138.882C983.086 139.103 983.173 139.313 983.305 139.494C983.437 139.675 983.61 139.823 983.81 139.924C984.009 140.025 984.23 140.077 984.454 140.077ZM858.912 108.604C864.708 104.638 876.994 98.1175 894.626 98.5325C919.848 99.1026 936.08 123.82 931.89 148.247C928.274 169.279 922.009 183.191 899.271 194.962C891.26 199.149 882.304 201.197 873.269 200.908C864.213 200.578 852.962 198.452 845.341 191.027C845.157 190.842 844.925 190.712 844.671 190.65C844.418 190.589 844.152 190.598 843.904 190.678C843.655 190.758 843.433 190.904 843.263 191.101C843.092 191.299 842.979 191.539 842.936 191.797L841.766 198.997C841.711 199.329 841.541 199.631 841.284 199.849C841.028 200.067 840.702 200.187 840.366 200.188H810.168C809.962 200.187 809.759 200.142 809.573 200.056C809.387 199.97 809.221 199.844 809.088 199.688C808.955 199.531 808.857 199.348 808.802 199.15C808.747 198.952 808.735 198.745 808.768 198.542L811.928 179.14C811.961 178.938 811.95 178.73 811.895 178.532C811.84 178.334 811.742 178.15 811.609 177.993C811.476 177.837 811.31 177.711 811.123 177.625C810.937 177.539 810.733 177.495 810.528 177.495H786.17C785.833 177.495 785.507 177.614 785.251 177.832C784.994 178.05 784.824 178.353 784.77 178.685L781.465 198.997C781.41 199.329 781.24 199.631 780.983 199.849C780.727 200.067 780.401 200.187 780.065 200.188H749.852C749.646 200.187 749.444 200.142 749.257 200.056C749.071 199.97 748.905 199.844 748.772 199.688C748.639 199.531 748.542 199.348 748.486 199.15C748.431 198.952 748.419 198.745 748.452 198.542L749.902 189.661C749.95 189.36 749.9 189.05 749.758 188.78C749.616 188.509 749.39 188.291 749.114 188.16C748.839 188.028 748.528 187.989 748.228 188.049C747.928 188.109 747.656 188.264 747.452 188.491C738.076 198.957 725.659 202.283 711.628 202.283C699.187 202.283 679.36 191.907 673.564 170.61C673.485 170.307 673.307 170.038 673.06 169.846C672.812 169.655 672.508 169.55 672.194 169.549H647.102C646.757 169.549 646.423 169.675 646.164 169.904C645.906 170.132 645.739 170.447 645.697 170.79C644.711 178.385 638.111 203.793 593.956 203.793C548.772 203.793 542.056 177.19 541.056 170.29C541.028 170.089 541.043 169.884 541.1 169.689C541.158 169.494 541.256 169.314 541.39 169.161C541.523 169.007 541.688 168.885 541.873 168.801C542.058 168.717 542.258 168.674 542.461 168.674H570.009C570.271 168.675 570.527 168.748 570.75 168.884C570.974 169.021 571.155 169.217 571.274 169.449C572.749 172.32 578.89 182.166 593.391 182.166C598.472 182.166 605.778 178.67 609.358 176.78C609.508 176.701 609.68 176.671 609.848 176.695C610.017 176.718 610.173 176.793 610.297 176.91C610.42 177.027 610.504 177.179 610.537 177.346C610.569 177.513 610.549 177.686 610.478 177.84L607.758 183.801C607.707 183.915 607.685 184.041 607.695 184.166C607.705 184.291 607.747 184.412 607.815 184.517C607.884 184.621 607.978 184.708 608.088 184.767C608.199 184.826 608.323 184.857 608.448 184.856C619.124 184.631 622.819 173.755 622.819 171.755V171.54C622.802 171.388 622.791 171.216 622.78 171.03C622.705 169.817 622.59 167.953 620.319 166.449C618.121 164.99 609.788 165.075 603.987 165.135C602.254 165.152 600.747 165.168 599.697 165.139C592.356 164.944 587.356 163.209 584.856 161.609H670.524C670.714 161.608 670.902 161.569 671.077 161.495C671.252 161.42 671.41 161.31 671.541 161.173C671.673 161.036 671.776 160.874 671.843 160.696C671.911 160.518 671.942 160.329 671.934 160.139C671.758 154.941 672.263 149.744 673.434 144.677C682.07 105.828 711.683 94.7772 733.54 98.1725C746.341 100.158 756.202 107.528 760.403 111.459C760.591 111.633 760.823 111.753 761.073 111.806C761.324 111.859 761.585 111.843 761.827 111.759C762.07 111.675 762.285 111.527 762.45 111.331C762.614 111.135 762.723 110.897 762.763 110.644L764.383 100.708C764.437 100.375 764.607 100.073 764.864 99.8545C765.12 99.6364 765.446 99.5169 765.783 99.5176H795.976C796.182 99.5171 796.385 99.5613 796.572 99.6473C796.759 99.7333 796.924 99.859 797.058 100.016C797.191 100.172 797.289 100.356 797.344 100.554C797.399 100.752 797.41 100.96 797.376 101.163L792.296 132.361C792.241 132.693 792.071 132.995 791.814 133.213C791.558 133.431 791.232 133.551 790.896 133.551H759.033L759.063 133.376H721.374C718.638 133.372 715.957 134.144 713.642 135.603C711.328 137.062 709.475 139.147 708.298 141.617C706.786 144.736 705.912 148.125 705.726 151.586C705.539 155.047 706.045 158.51 707.213 161.774C707.97 163.966 709.393 165.866 711.283 167.211C713.172 168.555 715.434 169.277 717.754 169.274H846.491C848.681 169.279 850.788 170.113 852.387 171.61C857.007 175.895 863.553 180.156 870.889 179.445C885.075 178.065 894.631 168.679 897.391 149.728C900.151 130.776 890.596 121.81 880.055 121.515C873.611 121.332 867.968 124.82 862.438 128.238C859.363 130.139 856.324 132.018 853.202 133.231C852.69 133.422 852.148 133.519 851.602 133.516H821.019C820.813 133.516 820.611 133.471 820.424 133.385C820.238 133.298 820.072 133.173 819.939 133.016C819.806 132.86 819.709 132.676 819.653 132.479C819.598 132.281 819.586 132.074 819.619 131.871L830.48 65.2193C830.533 64.8867 830.704 64.5842 830.96 64.366C831.217 64.1479 831.543 64.0284 831.88 64.0292H862.073C862.281 64.0286 862.487 64.0739 862.675 64.162C862.864 64.25 863.031 64.3787 863.164 64.5387C863.297 64.6987 863.394 64.8861 863.446 65.0876C863.499 65.2891 863.506 65.4997 863.468 65.7043L856.707 107.208C856.664 107.483 856.701 107.764 856.815 108.017C856.93 108.27 857.116 108.484 857.35 108.632C857.585 108.781 857.858 108.857 858.136 108.852C858.413 108.847 858.683 108.76 858.912 108.604Z" fill="#231F20"></path></svg> 